<svg xmlns="http://www.w3.org/2000/svg" id="a" viewBox="0 0 356.24 165.43"><path d="M179.05,93.17c-10.68-6.1-40.99-10.32-58.71-3.45-5.64-5.15-11.5-27.07-28.04-16.94-2.32-.33-19.05,17.94-18.83,14.89-1.61-13.9,18.17-89.9-.49-87.54h0C57.56-2.21,1.89,139.13,0,165.43c-.11-.91,18.96-58.86,59.86-131.98,1.97-3.53,12.14-25.43,10.94-16.2-.03,20.11-27.76,86.3-8.8,95,15.81,10.76,32.15-24.59,36.63-24.86,11.39,8.2,7.8,24.09,29.5,10.63,21.05-14.04,65.91,6.23,50.92-4.86Z" style="fill:#601229;"></path><path d="M229.4,69.33h-.07v2.02h.07c1.4,0,2.47,.37,3.19,1.12,.72,.75,1.09,1.93,1.09,3.55s-.36,2.81-1.09,3.55c-.73,.75-1.84,1.12-3.35,1.12h-1.07v-11.37h-1.84v13.38h2.91c2.02,0,3.58-.57,4.66-1.71,1.08-1.14,1.62-2.8,1.62-4.99s-.54-3.85-1.63-4.98c-1.09-1.13-2.59-1.7-4.49-1.7Z" style="fill:#601229;"></path><polygon points="239.93 69.33 238.09 69.33 238.09 80.72 238.09 82.72 239.93 82.72 245.06 82.72 245.6 82.72 246.04 82.72 246.04 80.7 245.06 80.7 242.46 80.7 239.93 80.7 239.93 76.9 241.04 76.9 244.65 76.9 244.65 74.88 240.3 74.88 239.93 74.88 239.93 71.35 243.6 71.35 246.04 71.35 246.04 69.33 241.14 69.33 239.93 69.33" style="fill:#601229;"></polygon><path d="M254.4,76.17c-.3-.35-.65-.65-1.05-.9-.4-.26-.82-.47-1.27-.65-.14-.05-.31-.11-.51-.17-.2-.06-.4-.13-.61-.21s-.4-.16-.58-.25c-.18-.09-.33-.19-.43-.29-.15-.15-.25-.32-.3-.49s-.07-.37-.07-.59c0-.27,.05-.49,.15-.67,.1-.18,.23-.32,.39-.41,.16-.1,.34-.16,.55-.2,.21-.04,.42-.06,.63-.06,.22,0,.48,.02,.78,.06,.29,.04,.59,.09,.89,.16s.59,.16,.87,.26c.28,.1,.51,.22,.71,.35l.46-1.8c-.21-.14-.47-.27-.79-.39-.32-.12-.65-.23-.99-.32-.35-.09-.69-.16-1.02-.21-.33-.05-.62-.08-.87-.08-.46,0-.9,.07-1.34,.2s-.82,.34-1.15,.61c-.33,.28-.6,.62-.8,1.03s-.3,.89-.3,1.44c0,.77,.14,1.38,.43,1.84s.64,.83,1.07,1.1c.43,.28,.89,.5,1.4,.66s.97,.35,1.4,.55c.43,.2,.78,.45,1.07,.75s.43,.72,.43,1.26c0,.35-.07,.64-.21,.89s-.32,.45-.54,.61c-.22,.16-.46,.28-.74,.36-.28,.08-.55,.12-.82,.12s-.53,0-.75-.03c-.22-.02-.44-.06-.66-.12-.22-.06-.45-.14-.71-.24-.26-.1-.57-.24-.93-.42l-.61,1.71c.61,.4,1.21,.67,1.79,.83,.58,.15,1.23,.23,1.95,.23,.49,0,.98-.09,1.47-.26,.49-.17,.92-.42,1.31-.75,.39-.33,.7-.73,.94-1.2s.36-1,.36-1.59-.09-1.09-.26-1.54c-.17-.45-.41-.84-.71-1.19Z" style="fill:#601229;"></path><polygon points="266.2 82.72 268.26 82.72 262.13 69.33 256.01 82.72 258.06 82.72 258.76 81.18 263.43 81.18 262.62 79.17 259.69 79.17 262.13 73.83 266.2 82.72" style="fill:#601229;"></polygon><path d="M276.88,79.94c-.45-.89-.98-1.77-1.57-2.64,.39-.15,.75-.35,1.1-.6,.35-.24,.65-.52,.91-.84,.26-.32,.46-.68,.62-1.08,.15-.4,.23-.83,.23-1.29,0-.7-.12-1.32-.35-1.84-.24-.52-.56-.96-.98-1.31s-.9-.6-1.46-.77c-.56-.17-1.16-.25-1.8-.25h-4.19v2h2.77v.02h1.54c.37,0,.72,.04,1.04,.11,.32,.07,.59,.19,.83,.36,.23,.17,.42,.4,.55,.67,.13,.27,.2,.62,.2,1.04,0,.52-.19,.94-.57,1.26-.38,.31-.84,.55-1.38,.72-.54,.17-1.1,.27-1.68,.32-.58,.04-1.07,.07-1.47,.07v-2.97h-1.84v9.79h1.84v-4.86c.34,0,.69-.01,1.04-.04,.35-.03,.7-.06,1.04-.12,.6,.78,1.11,1.59,1.55,2.43,.43,.84,.87,1.7,1.3,2.58h2.08c-.45-.96-.89-1.88-1.35-2.77Z" style="fill:#601229;"></path><path d="M286.26,77.3c.39-.15,.75-.35,1.1-.6,.35-.24,.65-.52,.91-.84,.26-.32,.46-.68,.62-1.08,.15-.4,.23-.83,.23-1.29,0-.7-.12-1.32-.35-1.84-.24-.52-.56-.96-.98-1.31s-.9-.6-1.46-.77c-.56-.17-1.16-.25-1.8-.25h-4.19v2h2.77v.02h1.54c.37,0,.72,.04,1.04,.11,.32,.07,.59,.19,.83,.36,.23,.17,.42,.4,.55,.67,.13,.27,.2,.62,.2,1.04,0,.52-.19,.94-.57,1.26-.38,.31-.84,.55-1.38,.72-.54,.17-1.1,.27-1.68,.32-.58,.04-1.07,.07-1.47,.07v-2.97h-1.84v9.79h1.84v-4.86c.34,0,.69-.01,1.04-.04,.35-.03,.7-.06,1.04-.12,.6,.78,1.11,1.59,1.55,2.43,.43,.84,.87,1.7,1.3,2.58h2.08c-.45-.96-.89-1.88-1.35-2.77s-.98-1.77-1.57-2.64Z" style="fill:#601229;"></path><path d="M300.76,80.87c.25-.35,.46-.7,.63-1.06,.32-.63,.54-1.24,.67-1.85s.19-1.25,.18-1.93c.01-.67-.05-1.3-.18-1.91s-.35-1.23-.67-1.87c-.18-.35-.39-.69-.63-1.04-.25-.35-.56-.66-.94-.93-.38-.27-.84-.5-1.37-.67s-1.17-.26-1.92-.26-1.39,.09-1.92,.26-.99,.4-1.37,.67c-.38,.28-.7,.59-.95,.93-.25,.35-.47,.69-.64,1.04-.3,.64-.52,1.26-.66,1.87s-.2,1.24-.18,1.91c.01,.68,.08,1.32,.2,1.93s.34,1.23,.64,1.85c.18,.36,.39,.71,.64,1.06s.57,.66,.95,.93c.38,.28,.84,.5,1.37,.66s1.17,.25,1.92,.25,1.39-.08,1.92-.25,.99-.39,1.37-.66c.38-.27,.69-.59,.94-.93Zm-.7-2.72c-.11,.29-.24,.59-.4,.9-.05,.09-.1,.18-.15,.27s-.11,.17-.17,.25c-.26,.33-.56,.59-.91,.77-.13,.06-.26,.12-.39,.15-.13,.04-.26,.07-.39,.1-.39,.08-.77,.11-1.14,.11s-.77-.04-1.16-.11c-.13-.03-.26-.06-.39-.1-.13-.04-.26-.09-.39-.15-.35-.18-.65-.43-.89-.77-.06-.08-.11-.16-.17-.25s-.11-.18-.17-.27c-.16-.31-.3-.61-.4-.9-.12-.34-.2-.68-.25-.99-.02-.19-.04-.38-.05-.56-.01-.18-.02-.37-.02-.56,0-.18,0-.36,.02-.55s.03-.38,.05-.55c.05-.32,.13-.66,.25-1.01,.11-.32,.24-.61,.4-.88,.11-.2,.22-.38,.33-.54,.13-.17,.27-.31,.42-.43,.15-.12,.31-.23,.47-.32,.13-.06,.26-.12,.39-.16,.13-.04,.26-.08,.39-.1,.39-.08,.77-.11,1.16-.11s.75,.04,1.14,.11c.13,.03,.26,.06,.39,.1,.13,.04,.26,.1,.39,.16,.37,.18,.68,.43,.91,.75,.13,.18,.23,.36,.32,.54,.08,.14,.16,.28,.22,.43,.06,.15,.12,.3,.18,.45,.12,.32,.21,.66,.26,1.01,.02,.18,.04,.36,.05,.55s.02,.38,.02,.55c0,.19,0,.38-.02,.56-.01,.19-.03,.37-.05,.56-.06,.34-.15,.68-.26,.99Z" style="fill:#601229;"></path><polygon points="310.41 82.72 310.41 80.7 306.17 80.7 306.17 69.33 304.9 69.33 304.32 69.33 304.32 82.72 306.13 82.72 310.41 82.72" style="fill:#601229;"></polygon><polygon points="318.38 82.72 318.38 80.7 314.13 80.7 314.13 69.33 312.87 69.33 312.29 69.33 312.29 82.72 314.1 82.72 318.38 82.72" style="fill:#601229;"></polygon><path d="M319.94,80.87c.25,.35,.57,.66,.95,.93,.38,.28,.84,.5,1.37,.66s1.17,.25,1.92,.25,1.39-.08,1.92-.25,.99-.39,1.37-.66c.38-.27,.69-.59,.94-.93s.46-.7,.63-1.06c.32-.63,.54-1.24,.67-1.85s.19-1.25,.18-1.93c.01-.67-.05-1.3-.18-1.91s-.35-1.23-.67-1.87c-.18-.35-.39-.69-.63-1.04-.25-.35-.56-.66-.94-.93-.38-.27-.84-.5-1.37-.67s-1.17-.26-1.92-.26-1.39,.09-1.92,.26-.99,.4-1.37,.67c-.38,.28-.7,.59-.95,.93-.25,.35-.47,.69-.64,1.04-.3,.64-.52,1.26-.66,1.87s-.2,1.24-.18,1.91c.01,.68,.08,1.32,.2,1.93s.34,1.23,.64,1.85c.18,.36,.39,.71,.64,1.06Zm.38-5.39c.01-.19,.03-.38,.05-.55,.05-.32,.13-.66,.25-1.01,.11-.32,.24-.61,.4-.88,.11-.2,.22-.38,.33-.54,.13-.17,.27-.31,.42-.43,.15-.12,.31-.23,.47-.32,.13-.06,.26-.12,.39-.16,.13-.04,.26-.08,.39-.1,.39-.08,.77-.11,1.16-.11s.75,.04,1.14,.11c.13,.03,.26,.06,.39,.1,.13,.04,.26,.1,.39,.16,.37,.18,.68,.43,.91,.75,.13,.18,.23,.36,.32,.54,.08,.14,.16,.28,.22,.43,.06,.15,.12,.3,.18,.45,.12,.32,.21,.66,.26,1.01,.02,.18,.04,.36,.05,.55s.02,.38,.02,.55c0,.19,0,.38-.02,.56-.01,.19-.03,.37-.05,.56-.06,.34-.15,.68-.26,.99-.11,.29-.24,.59-.4,.9-.05,.09-.1,.18-.15,.27s-.11,.17-.17,.25c-.26,.33-.56,.59-.91,.77-.13,.06-.26,.12-.39,.15-.13,.04-.26,.07-.39,.1-.39,.08-.77,.11-1.14,.11s-.77-.04-1.16-.11c-.13-.03-.26-.06-.39-.1-.13-.04-.26-.09-.39-.15-.35-.18-.65-.43-.89-.77-.06-.08-.11-.16-.17-.25s-.11-.18-.17-.27c-.16-.31-.3-.61-.4-.9-.12-.34-.2-.68-.25-.99-.02-.19-.04-.38-.05-.56-.01-.18-.02-.37-.02-.56,0-.18,0-.36,.02-.55Z" style="fill:#601229;"></path><path d="M336.46,69.33v13.38h2.91c2.02,0,3.58-.57,4.66-1.71,1.08-1.14,1.62-2.8,1.62-4.99s-.54-3.85-1.63-4.98c-1.09-1.13-2.59-1.7-4.49-1.7h-.07v2.02h.07c1.4,0,2.47,.37,3.19,1.12,.72,.75,1.09,1.93,1.09,3.55s-.36,2.81-1.09,3.55c-.73,.75-1.84,1.12-3.35,1.12h-1.07v-11.37h-1.84Z" style="fill:#601229;"></path><polygon points="350.06 69.33 348.22 69.33 348.22 80.72 348.22 82.72 350.06 82.72 355.18 82.72 355.73 82.72 356.17 82.72 356.17 80.7 355.18 80.7 352.59 80.7 350.06 80.7 350.06 76.9 351.16 76.9 354.78 76.9 354.78 74.88 350.43 74.88 350.06 74.88 350.06 71.35 353.73 71.35 356.17 71.35 356.17 69.33 351.27 69.33 350.06 69.33" style="fill:#601229;"></polygon><path d="M274.26,99.21c-.3-.35-.65-.65-1.05-.9s-.82-.47-1.27-.65c-.14-.05-.31-.11-.51-.17-.2-.06-.4-.13-.61-.21s-.4-.16-.58-.25c-.18-.09-.33-.19-.43-.29-.15-.15-.25-.32-.3-.49s-.07-.37-.07-.59c0-.27,.05-.49,.15-.67,.1-.18,.23-.32,.39-.41,.16-.1,.34-.16,.55-.2s.42-.06,.63-.06c.22,0,.48,.02,.78,.06s.59,.09,.89,.16,.59,.16,.87,.26,.51,.22,.71,.35l.46-1.81c-.21-.14-.47-.27-.79-.39-.32-.12-.65-.23-.99-.32s-.69-.16-1.02-.21-.62-.08-.87-.08c-.46,0-.9,.07-1.34,.2-.43,.13-.82,.34-1.15,.61-.33,.28-.6,.62-.8,1.03-.2,.41-.3,.89-.3,1.44,0,.77,.14,1.38,.43,1.84,.29,.46,.64,.83,1.07,1.1,.43,.28,.89,.5,1.4,.66,.5,.17,.97,.35,1.4,.55,.43,.2,.78,.45,1.07,.75,.29,.3,.43,.72,.43,1.26,0,.35-.07,.64-.21,.89-.14,.25-.32,.46-.54,.62-.22,.16-.46,.28-.74,.36-.28,.08-.55,.12-.82,.12s-.53,0-.75-.03c-.22-.02-.44-.06-.66-.12-.22-.06-.45-.14-.71-.24-.26-.1-.57-.24-.93-.42l-.61,1.71c.61,.4,1.21,.67,1.79,.83,.58,.15,1.23,.23,1.95,.23,.49,0,.98-.09,1.47-.26,.49-.17,.92-.42,1.31-.75s.7-.73,.94-1.2c.24-.47,.36-1,.36-1.59s-.09-1.09-.26-1.54c-.17-.45-.41-.84-.71-1.19Z" style="fill:#601229;"></path><path d="M287.56,95.29c-.18-.35-.39-.69-.63-1.04s-.56-.66-.94-.93-.84-.5-1.37-.67c-.53-.17-1.17-.26-1.92-.26s-1.39,.09-1.92,.26c-.53,.17-.99,.4-1.37,.67s-.7,.58-.95,.93-.47,.69-.64,1.04c-.3,.64-.52,1.26-.66,1.87-.13,.61-.2,1.25-.18,1.91,.01,.68,.08,1.32,.2,1.93,.12,.61,.34,1.23,.64,1.85,.18,.36,.39,.71,.64,1.06,.25,.34,.57,.66,.95,.93s.84,.5,1.37,.66c.53,.17,1.17,.25,1.92,.25s1.39-.08,1.92-.25c.53-.17,.99-.39,1.37-.66s.69-.59,.94-.93c.25-.35,.46-.7,.63-1.06,.32-.63,.54-1.24,.67-1.85,.13-.61,.19-1.25,.18-1.93,.01-.67-.05-1.3-.18-1.91-.13-.61-.35-1.23-.67-1.87Zm-1.02,4.35c-.01,.18-.03,.37-.05,.56-.06,.34-.15,.68-.26,.99-.11,.29-.24,.59-.4,.9-.05,.09-.1,.18-.15,.27s-.11,.17-.17,.25c-.26,.33-.56,.59-.91,.77-.13,.06-.26,.11-.39,.15-.13,.04-.26,.07-.39,.1-.39,.08-.77,.12-1.14,.12s-.77-.04-1.16-.12c-.13-.03-.26-.06-.39-.1-.13-.04-.26-.09-.39-.15-.35-.18-.65-.43-.89-.77-.06-.08-.11-.16-.17-.25s-.11-.18-.17-.27c-.16-.31-.3-.61-.4-.9-.12-.34-.2-.67-.25-.99-.02-.19-.04-.38-.05-.56-.01-.19-.02-.37-.02-.56,0-.18,0-.36,.02-.55,.01-.19,.03-.38,.05-.55,.05-.32,.13-.66,.25-1.01,.11-.32,.24-.61,.4-.88,.11-.2,.22-.38,.33-.54,.13-.17,.27-.31,.42-.43,.15-.12,.31-.23,.47-.32,.13-.06,.26-.12,.39-.16,.13-.04,.26-.08,.39-.11,.39-.08,.77-.12,1.16-.12s.75,.04,1.14,.12c.13,.03,.26,.06,.39,.11,.13,.04,.26,.1,.39,.16,.37,.18,.68,.43,.91,.75,.13,.18,.23,.36,.32,.54,.08,.14,.16,.28,.22,.43,.06,.15,.12,.3,.18,.45,.12,.32,.21,.66,.26,1.01,.02,.18,.04,.36,.05,.55,.01,.19,.02,.38,.02,.55,0,.19,0,.38-.02,.56Z" style="fill:#601229;"></path><polygon points="292.34 92.35 291.33 92.35 290.49 92.35 290.49 100.4 290.49 105.76 290.79 105.76 292.34 105.76 292.34 99.86 292.79 99.86 295.34 99.86 297.13 99.86 297.13 97.85 295.41 97.85 292.72 97.85 292.34 97.85 292.34 94.37 296 94.37 298.04 94.37 298.04 92.35 293.57 92.35 292.34 92.35" style="fill:#601229;"></polygon><polygon points="300.11 94.37 303.08 94.37 303.08 105.76 304.92 105.76 304.92 94.37 307.75 94.37 307.75 92.35 300.11 92.35 300.11 94.37" style="fill:#601229;"></polygon><polygon points="309.04 92.37 315.17 105.76 316.26 103.7 311.1 92.37 309.04 92.37" style="fill:#601229;"></polygon><polygon points="323.56 92.37 319.49 101.28 318.36 98.81 320.42 94.29 318.36 94.29 317.33 96.56 316.29 94.29 314.24 94.29 319.49 105.76 325.61 92.37 323.56 92.37" style="fill:#601229;"></polygon><polygon points="323.7 105.76 325.75 105.76 326.45 104.22 331.12 104.22 330.32 102.2 327.38 102.2 329.82 96.87 333.9 105.76 335.95 105.76 329.82 92.37 323.7 105.76" style="fill:#601229;"></polygon><path d="M343,100.34c.39-.15,.75-.35,1.1-.6s.65-.52,.91-.84c.26-.32,.46-.68,.62-1.08,.15-.4,.23-.83,.23-1.29,0-.7-.12-1.32-.35-1.84-.24-.52-.56-.96-.98-1.31-.42-.34-.9-.6-1.46-.77-.56-.17-1.16-.25-1.8-.25h-4.19v2h2.77v.02h1.54c.37,0,.72,.04,1.04,.11,.32,.07,.59,.19,.83,.36s.42,.4,.55,.67c.13,.27,.2,.62,.2,1.04,0,.52-.19,.94-.57,1.26-.38,.31-.84,.55-1.38,.72s-1.1,.27-1.68,.32-1.07,.07-1.47,.07v-2.97h-1.84v9.79h1.84v-4.86c.34,0,.69-.01,1.04-.04,.35-.03,.7-.06,1.04-.11,.6,.78,1.11,1.59,1.55,2.43,.43,.84,.87,1.7,1.3,2.58h2.08c-.45-.96-.89-1.88-1.35-2.77s-.98-1.77-1.57-2.64Z" style="fill:#601229;"></path><polygon points="350.06 92.37 348.22 92.37 348.22 103.76 348.22 105.76 350.06 105.76 355.18 105.76 355.73 105.76 356.17 105.76 356.17 103.74 355.18 103.74 352.59 103.74 350.06 103.74 350.06 99.94 351.16 99.94 354.78 99.94 354.78 97.92 350.43 97.92 350.06 97.92 350.06 94.39 353.73 94.39 356.17 94.39 356.17 92.37 351.27 92.37 350.06 92.37" style="fill:#601229;"></polygon><path d="M118.16,36.04c0-2.44,.58-4.36,1.75-5.75,1.17-1.39,2.79-2.09,4.87-2.09s3.69,.68,4.83,2.04c1.14,1.36,1.71,3.29,1.71,5.79v23.6h14.8v-25.13c0-3.98-.74-7.47-2.22-10.48-1.48-3.01-3.57-5.34-6.27-6.99-2.7-1.65-5.82-2.47-9.35-2.47-2.75,0-5.27,.51-7.55,1.53-2.29,1.02-4.21,2.53-5.76,4.52l-4.21-4.94h-7.4V59.64h14.8v-23.6Z" style="fill:#601229;"></path><path d="M182.8,38.6c0,2.73-.54,4.83-1.63,6.3-1.09,1.48-2.62,2.22-4.6,2.22s-3.58-.74-4.67-2.22c-1.09-1.48-1.64-3.58-1.64-6.3V15.68h-14.8v23.69c0,4.26,.87,8.01,2.61,11.25,1.74,3.24,4.21,5.74,7.4,7.5,3.19,1.76,6.89,2.64,11.1,2.64s7.83-.88,11.02-2.64c3.19-1.76,5.66-4.26,7.4-7.5,1.74-3.24,2.61-6.99,2.61-11.25V15.68h-14.8v22.92Z" style="fill:#601229;"></path><path d="M250.48,59.64v-25.13c0-3.98-.74-7.47-2.22-10.48-1.48-3.01-3.57-5.34-6.27-6.99-2.7-1.65-5.82-2.47-9.35-2.47-2.75,0-5.27,.51-7.55,1.53-2.29,1.02-4.21,2.53-5.76,4.52l-4.21-4.94h-7.4V59.64h14.8v-23.6c0-2.44,.58-4.36,1.75-5.75,1.17-1.39,2.79-2.09,4.87-2.09s3.69,.68,4.83,2.04c1.14,1.36,1.71,3.29,1.71,5.79v23.6h14.8Z" style="fill:#601229;"></path><path d="M268.12,57.64c3.04,1.96,6.5,2.94,10.4,2.94,2.7,0,5.24-.5,7.63-1.49,2.39-.99,4.46-2.4,6.23-4.22l3.74,4.77h7.87V0h-14.8V18.49c-3.27-2.5-7.04-3.75-11.29-3.75-3.74,0-7.09,.98-10.05,2.94-2.96,1.96-5.27,4.67-6.93,8.14-1.66,3.46-2.49,7.41-2.49,11.84s.86,8.38,2.57,11.84c1.71,3.47,4.09,6.18,7.13,8.14Zm7.28-26.84c1.56-1.73,3.61-2.6,6.15-2.6s4.59,.87,6.15,2.6c1.56,1.73,2.34,4.02,2.34,6.86s-.78,5.13-2.34,6.86c-1.56,1.73-3.61,2.6-6.15,2.6s-4.59-.87-6.15-2.6c-1.56-1.73-2.34-4.02-2.34-6.86s.78-5.13,2.34-6.86Z" style="fill:#601229;"></path><path d="M341.44,15.68v22.92c0,2.73-.54,4.83-1.64,6.3-1.09,1.48-2.62,2.22-4.59,2.22s-3.58-.74-4.67-2.22c-1.09-1.48-1.64-3.58-1.64-6.3V15.68h-14.8v23.69c0,4.26,.87,8.01,2.61,11.25,1.74,3.24,4.21,5.74,7.4,7.5,3.19,1.76,6.89,2.64,11.1,2.64s7.83-.88,11.02-2.64c3.19-1.76,5.66-4.26,7.4-7.5,1.74-3.24,2.61-6.99,2.61-11.25V15.68h-14.8Z" style="fill:#601229;"></path></svg>